<?xml version="1.0" encoding="UTF-8" standalone="no"?>
<svg
     xmlns:dc="http://purl.org/dc/elements/1.1/"
     xmlns:cc="http://creativecommons.org/ns#"
     xmlns:rdf="http://www.w3.org/1999/02/22-rdf-syntax-ns#"
     xmlns:svg="http://www.w3.org/2000/svg"
     xmlns="http://www.w3.org/2000/svg"
     xmlns:xlink="http://www.w3.org/1999/xlink"
     xmlns:sodipodi="http://sodipodi.sourceforge.net/DTD/sodipodi-0.dtd"
     xmlns:inkscape="http://www.inkscape.org/namespaces/inkscape"
     viewBox="0 0 32 32"
     version="1.1"
     id="svg37"
     sodipodi:docname="plugin-windecor.svg"
     inkscape:version="1.0.2 (e86c870879, 2021-01-15)"
     inkscape:export-filename="/home/cosmos/Softwares/Projects/WayfirePlugins/subprojects/windecor/executable.svg.png"
     inkscape:export-xdpi="1024"
     inkscape:export-ydpi="1024"
     width="32"
     height="32">
    <metadata
         id="metadata41">
        <rdf:RDF>
            <cc:Work
                 rdf:about="">
                <dc:format>image/svg+xml</dc:format>
                <dc:type
                     rdf:resource="http://purl.org/dc/dcmitype/StillImage" />
                <dc:title></dc:title>
            </cc:Work>
        </rdf:RDF>
    </metadata>
    <sodipodi:namedview
         pagecolor="#ffffff"
         bordercolor="#666666"
         borderopacity="1"
         objecttolerance="10"
         gridtolerance="10"
         guidetolerance="10"
         inkscape:pageopacity="0"
         inkscape:pageshadow="2"
         inkscape:window-width="1366"
         inkscape:window-height="744"
         id="namedview39"
         showgrid="false"
         inkscape:zoom="6.485495"
         inkscape:cx="24"
         inkscape:cy="24"
         inkscape:window-x="0"
         inkscape:window-y="0"
         inkscape:window-maximized="1"
         inkscape:current-layer="svg37"
         inkscape:document-rotation="0" />
    <defs
         id="0">
        <linearGradient
             id="2">
            <stop
                 id="J"
                 stop-color="#fff" />
            <stop
                 id="K"
                 offset="1"
                 stop-color="#fff"
                 stop-opacity="0" />
        </linearGradient>
        <linearGradient
             id="3">
            <stop
                 id="L"
                 stop-color="#fff"
                 stop-opacity="0.8" />
            <stop
                 id="M"
                 offset="1"
                 stop-color="#fff"
                 stop-opacity="0" />
        </linearGradient>
        <linearGradient
             id="4">
            <stop
                 id="N"
                 stop-color="#2e3436" />
            <stop
                 id="O"
                 offset="1"
                 stop-color="#2e3436"
                 stop-opacity="0" />
        </linearGradient>
        <linearGradient
             id="5">
            <stop
                 id="P"
                 stop-color="#babdb6" />
            <stop
                 id="Q"
                 offset="1"
                 stop-color="#888a85" />
        </linearGradient>
        <linearGradient
             id="6">
            <stop
                 id="R"
                 stop-color="#eeeeec" />
            <stop
                 id="S"
                 offset="1"
                 stop-color="#d3d7cf" />
        </linearGradient>
        <radialGradient
             cx="25.978001"
             cy="44.784"
             r="25.648001"
             id="7"
             xlink:href="#4"
             gradientUnits="userSpaceOnUse"
             gradientTransform="matrix(0.9357478,0,0,0.10475258,-0.30868025,37.132864)" />
        <linearGradient
             y1="4.6849999"
             x2="0"
             y2="16.316999"
             id="8"
             xlink:href="#5"
             gradientUnits="userSpaceOnUse"
             gradientTransform="translate(2.9367904e-7,-1.1957279)" />
        <radialGradient
             cx="7.9510002"
             cy="12.07"
             r="20.813"
             id="9"
             xlink:href="#6"
             gradientUnits="userSpaceOnUse"
             gradientTransform="matrix(-0.3475935,2.1665084,-3.9268494,-0.6300222,57.705288,10.031857)" />
        <linearGradient
             y1="5.6560001"
             x2="0"
             y2="42.34"
             id="A"
             xlink:href="#3"
             gradientUnits="userSpaceOnUse"
             gradientTransform="translate(2.9367904e-7,-1.1957279)" />
        <linearGradient
             x1="14.315"
             y1="-26.594999"
             x2="29.837999"
             y2="19.771"
             id="B"
             xlink:href="#2"
             gradientUnits="userSpaceOnUse"
             gradientTransform="translate(2.9367904e-7,-1.1957279)" />
    </defs>
    <g
         id="g949"
         transform="matrix(0.66666667,0,0,0.66666667,7.4080901e-8,1.162919)">
        <path
             d="M 48,41.824071 A 24,2.6866864 0 1 1 4.4448541e-7,41.824071 24,2.6866864 0 1 1 48,41.824071 Z"
             id="C"
             opacity="0.8"
             fill="url(#7)"
             style="fill:url(#7);stroke-width:0.907697" />
        <rect
             width="42.630001"
             height="37.630001"
             rx="3.043"
             x="2.6849999"
             y="3.9887569"
             id="D"
             fill="url(#8)"
             stroke="#555753"
             style="fill:url(#8)" />
        <g
             id="g934">
            <path
                 d="m 41.587067,10.196764 c 0,1.349512 -1.093995,2.443508 -2.443507,2.443508 -1.349512,0 -2.443508,-1.093996 -2.443508,-2.443508 0,-1.3495117 1.093996,-2.4435077 2.443508,-2.4435077 1.349512,0 2.443507,1.093996 2.443507,2.4435077 z"
                 id="T"
                 style="opacity:0.5;fill:#1e1e1e;fill-opacity:1;stroke-width:0.567848" />
            <path
                 d="m 36.048631,10.196764 c 0,1.349512 -1.093995,2.443508 -2.443507,2.443508 -1.349512,0 -2.443508,-1.093996 -2.443508,-2.443508 0,-1.3495117 1.093996,-2.4435077 2.443508,-2.4435077 1.349512,0 2.443507,1.093996 2.443507,2.4435077 z"
                 id="U"
                 style="opacity:0.5;fill:#1e1e1e;fill-opacity:1;stroke-width:0.567848" />
            <path
                 d="m 30.510016,10.196764 c 0,1.349512 -1.093995,2.443508 -2.443507,2.443508 -1.349512,0 -2.443508,-1.093996 -2.443508,-2.443508 0,-1.3495117 1.093996,-2.4435077 2.443508,-2.4435077 1.349512,0 2.443507,1.093996 2.443507,2.4435077 z"
                 id="V"
                 style="opacity:0.5;fill:#1e1e1e;fill-opacity:1;stroke-width:0.567848" />
        </g>
        <g
             id="g898">
            <path
                 d="m 41.587067,10.196764 c 0,1.349512 -1.093995,2.443508 -2.443507,2.443508 -1.349512,0 -2.443508,-1.093996 -2.443508,-2.443508 0,-1.3495116 1.093996,-2.4435076 2.443508,-2.4435076 1.349512,0 2.443507,1.093996 2.443507,2.4435076 z"
                 id="W"
                 fill="#2e3436"
                 style="fill:#cc0000;fill-opacity:0.466667;stroke-width:0.567848" />
            <path
                 d="m 36.048631,10.196764 c 0,1.349512 -1.093995,2.443508 -2.443507,2.443508 -1.349512,0 -2.443508,-1.093996 -2.443508,-2.443508 0,-1.3495116 1.093996,-2.4435076 2.443508,-2.4435076 1.349512,0 2.443507,1.093996 2.443507,2.4435076 z"
                 id="X"
                 fill="#2e3436"
                 style="fill:#09ff00;fill-opacity:0.466667;stroke-width:0.567848" />
            <path
                 d="m 30.510016,10.196764 c 0,1.349512 -1.093995,2.443508 -2.443507,2.443508 -1.349512,0 -2.443508,-1.093996 -2.443508,-2.443508 0,-1.3495116 1.093996,-2.4435076 2.443508,-2.4435076 1.349512,0 2.443507,1.093996 2.443507,2.4435076 z"
                 id="Y"
                 fill="#2e3436"
                 style="fill:#edd400;fill-opacity:0.466667;stroke-width:0.567848" />
        </g>
        <path
             d="m 3.1875003,15.429272 v 23.15625 c 0,1.412963 1.1182879,2.53125 2.53125,2.53125 H 42.28125 c 1.412963,0 2.53125,-1.118287 2.53125,-2.53125 v -23.15625 z"
             id="G"
             fill="url(#9)"
             style="fill:url(#9)" />
        <path
             d="m 5.7187503,4.9605221 c -1.1645251,0 -2.0625,0.8979751 -2.0625,2.0625 V 38.585522 c 0,1.164526 0.897975,2.0625 2.0625,2.0625 H 42.28125 c 1.164526,0 2.0625,-0.897974 2.0625,-2.0625 V 7.0230221 c 0,-1.1645253 -0.897974,-2.0625 -2.0625,-2.0625 z"
             id="H"
             opacity="0.8"
             fill="none"
             stroke="url(#A)"
             style="stroke:url(#A)" />
        <path
             d="m 5.7187503,4.4605221 c -1.4295372,0 -2.5625,1.132963 -2.5625,2.5625 V 13.835522 C 15.708593,10.51423 30.047066,8.7852294 44.84375,7.5855221 v -0.5625 c 0,-1.4295373 -1.132962,-2.5625 -2.5625,-2.5625 z"
             id="I"
             opacity="0.6"
             fill="url(#B)"
             style="fill:url(#B)" />
    </g>
</svg>
